<svg width="45" height="47" viewBox="0 0 45 47" fill="none" xmlns="http://www.w3.org/2000/svg">
<path fill-rule="evenodd" clip-rule="evenodd" d="M11.7188 16.4062C11.7188 7.34533 19.0641 0 28.125 0C37.1859 0 44.5312 7.34533 44.5312 16.4062C44.5312 25.4672 37.1859 32.8125 28.125 32.8125H22.2656C21.6184 32.8125 21.0938 33.3372 21.0938 33.9844C21.0938 37.2204 18.4704 39.8437 15.2344 39.8437C14.5872 39.8437 14.0625 40.3684 14.0625 41.0156C14.0625 44.2517 11.4392 46.875 8.20312 46.875H2.34375C1.04933 46.875 0 45.8257 0 44.5312V39.0395C0 35.9315 1.23465 32.9508 3.43234 30.7531L11.2641 22.9213C11.5552 22.6302 11.7188 22.2354 11.7188 21.8237V16.4062ZM28.125 21.0938C30.7138 21.0938 32.8125 18.9951 32.8125 16.4062C32.8125 13.8174 30.7138 11.7188 28.125 11.7188C25.5362 11.7188 23.4375 13.8174 23.4375 16.4062C23.4375 18.9951 25.5362 21.0938 28.125 21.0938Z" fill="#FCD53A"/>
</svg>
