<?xml version="1.0" encoding="UTF-8"?>
<svg width="500px" height="95px" viewBox="0 0 500 95" version="1.1" xmlns="http://www.w3.org/2000/svg" xmlns:xlink="http://www.w3.org/1999/xlink">
    <title>logomark copy</title>
    <g id="Page-1" stroke="none" stroke-width="1" fill="none" fill-rule="evenodd">
        <g id="logomark-copy" fill-rule="nonzero">
            <path d="M117.842041,94.6801255 C122.343473,94.6801255 126.865366,93.8412222 131.407721,92.1634156 C135.950075,90.4856091 139.980903,88.0916655 143.500205,84.981585 L143.500205,84.981585 L135.397627,73.6870823 C132.614923,75.9787205 130.016369,77.5746829 127.601964,78.4749693 C125.18756,79.3752558 122.507161,79.825399 119.560769,79.825399 C114.077206,79.825399 109.555313,78.4749693 105.995089,75.7741099 C102.434866,73.0732506 100.204611,69.3902605 99.3043241,64.7251398 L99.3043241,64.7251398 L145.955531,64.7251398 L146.078298,59.4461874 C146.241986,53.2260265 145.034784,47.7015414 142.456691,42.8727322 C139.878598,38.0439231 136.277452,34.2177056 131.653253,31.3940799 C127.029055,28.5704542 121.811485,27.1586414 116.000546,27.1586414 C109.534852,27.1586414 103.826217,28.6318374 98.8746419,31.5782294 C93.9230664,34.5246215 90.0354658,38.5554495 87.2118401,43.6707134 C84.3882144,48.7859774 82.9764016,54.6992225 82.9764016,61.4104488 C82.9764016,67.8761424 84.4291365,73.605238 87.3346065,78.5977356 C90.2400764,83.5902333 94.3118265,87.518756 99.5498568,90.3833038 C104.787887,93.2478516 110.885282,94.6801255 117.842041,94.6801255 Z M130.118674,54.167235 L99.4270904,54.167235 C101.309508,45.8191243 106.874915,41.6450689 116.123312,41.6450689 C119.888146,41.6450689 123.100532,42.770427 125.760469,45.0211431 C128.420406,47.2718592 129.873141,50.1568681 130.118674,53.6761697 L130.118674,53.6761697 L130.118674,54.167235 Z M181.339517,94.6801255 C185.513573,94.6801255 189.442095,93.8207612 193.125085,92.1020325 C196.808075,90.3833038 199.713545,88.255354 201.841495,85.7181831 L201.841495,85.7181831 L202.087028,93.4524621 L218.046651,93.4524621 L218.046651,2.60537444 L201.227663,2.60537444 L201.227663,35.6295185 C199.017869,33.1741918 196.13286,31.1690083 192.572637,29.6139681 C189.012413,28.0589278 185.26804,27.2814077 181.339517,27.2814077 C175.610421,27.2814077 170.495158,28.7341427 165.993725,31.6396126 C161.492293,34.5450825 157.95253,38.5349884 155.374437,43.6093302 C152.796344,48.6836721 151.507298,54.4946119 151.507298,61.0421498 C151.507298,67.5078434 152.796344,73.2778611 155.374437,78.352203 C157.95253,83.4265448 161.492293,87.4164507 165.993725,90.3219206 C170.495158,93.2273905 175.610421,94.6801255 181.339517,94.6801255 Z M185.022507,80.6847633 C180.03001,80.6847633 175.978721,78.8637294 172.86864,75.2216614 C169.75856,71.5795935 168.203519,66.8530896 168.203519,61.0421498 C168.203519,55.1493657 169.75856,50.3819397 172.86864,46.7398718 C175.978721,43.0978038 180.03001,41.2767699 185.022507,41.2767699 C190.015005,41.2767699 194.066294,43.0978038 197.176374,46.7398718 C200.286455,50.3819397 201.841495,55.1493657 201.841495,61.0421498 C201.841495,66.8530896 200.286455,71.5795935 197.176374,75.2216614 C194.066294,78.8637294 190.015005,80.6847633 185.022507,80.6847633 Z M263.142818,93.4524621 L291.747374,28.6318374 L273.823489,28.6318374 L257.3728,72.3366526 L241.535943,28.6318374 L223.120993,28.6318374 L250.375119,93.4524621 L263.142818,93.4524621 Z M305.920065,18.5377165 C309.11199,18.5377165 311.6287,17.6783522 313.470195,15.9596235 C315.31169,14.2408948 316.232438,12.0311008 316.232438,9.33024144 C316.232438,6.38384941 315.332151,4.09221116 313.531578,2.45532669 C311.731005,0.818442232 309.193834,0 305.920065,0 C302.646297,0 300.088665,0.859364343 298.24717,2.57809303 C296.405675,4.29682172 295.484927,6.54753785 295.484927,9.33024144 C295.484927,12.1947893 296.405675,14.4455054 298.24717,16.0823899 C300.088665,17.7192743 302.646297,18.5377165 305.920065,18.5377165 Z M314.390943,93.4524621 L314.390943,28.6318374 L297.571955,28.6318374 L297.571955,93.4524621 L314.390943,93.4524621 Z M349.911335,94.6801255 C354.740145,94.6801255 359.077888,93.8003001 362.924567,92.0406493 C366.771245,90.2809985 369.819943,87.8461329 372.070659,84.7360524 C374.321375,81.6259719 375.446733,78.1066703 375.446733,74.1781476 C375.446733,69.4311826 374.055381,65.6254263 371.272678,62.7608785 C368.080753,59.4052653 362.59719,56.7044059 354.821989,54.6583004 C349.011049,53.1032601 345.287137,51.7528304 343.650252,50.6070113 C341.931524,49.4611922 341.031237,47.906152 340.949393,45.9418906 C340.949393,41.8496794 343.895785,39.8035739 349.788569,39.8035739 C352.32574,39.8035739 355.087983,40.5197108 358.075297,41.9519847 C361.062611,43.3842586 363.702087,45.1643705 365.993725,47.2923203 L365.993725,47.2923203 L375.078434,37.3482472 C372.050198,34.2381667 368.285364,31.78284 363.783931,29.9822671 C359.282499,28.1816942 354.494612,27.2814077 349.42027,27.2814077 C345.000682,27.2814077 340.908471,28.09985 337.143637,29.7367344 C333.378802,31.3736189 330.350566,33.6447961 328.058928,36.550266 C325.76729,39.4557359 324.62147,42.8318101 324.62147,46.6784886 C324.62147,51.5072978 326.135589,55.5585868 329.163825,58.8323557 C332.601282,62.5153458 338.453144,65.4208157 346.719411,67.5487655 C352.284818,69.0219615 355.804119,70.2496249 357.277316,71.2317556 C358.750512,72.2957305 359.48711,73.7280044 359.48711,75.5285773 C359.48711,77.5746829 358.709589,79.1706452 357.154549,80.3164643 C355.599509,81.4622835 353.553403,82.035193 351.016232,82.035193 C347.824308,82.035193 344.673305,81.4418224 341.563225,80.2550812 C338.453144,79.0683399 335.670441,77.1245396 333.215114,74.4236803 L333.215114,74.4236803 L322.657209,83.3856227 C325.521757,86.9867685 329.286591,89.7694721 333.951712,91.7337335 C338.616833,93.6979948 343.936707,94.6801255 349.911335,94.6801255 Z M414.636475,94.6801255 C421.102169,94.6801255 426.913109,93.2273905 432.069295,90.3219206 C437.225481,87.4164507 441.27677,83.4265448 444.223162,78.352203 C447.169554,73.2778611 448.64275,67.4669213 448.64275,60.9193834 C448.64275,54.4536898 447.169554,48.6836721 444.223162,43.6093302 C441.27677,38.5349884 437.225481,34.5450825 432.069295,31.6396126 C426.913109,28.7341427 421.102169,27.2814077 414.636475,27.2814077 C408.007093,27.2814077 402.114309,28.7341427 396.958123,31.6396126 C391.801937,34.5450825 387.750648,38.5349884 384.804256,43.6093302 C381.857864,48.6836721 380.384668,54.4536898 380.384668,60.9193834 C380.384668,67.4669213 381.857864,73.2778611 384.804256,78.352203 C387.750648,83.4265448 391.801937,87.4164507 396.958123,90.3219206 C402.114309,93.2273905 408.007093,94.6801255 414.636475,94.6801255 Z M414.636475,80.0709317 C411.280862,80.0709317 408.293548,79.2320284 405.674533,77.5542218 C403.055518,75.8764152 401.009412,73.605238 399.536216,70.7406902 C398.06302,67.8761424 397.326422,64.6023735 397.326422,60.9193834 C397.326422,57.2363934 398.06302,53.9626245 399.536216,51.0980767 C401.009412,48.2335289 403.055518,45.9828127 405.674533,44.3459282 C408.293548,42.7090438 411.280862,41.8906016 414.636475,41.8906016 C417.910244,41.8906016 420.856636,42.7090438 423.475651,44.3459282 C426.094666,45.9828127 428.120311,48.2335289 429.552585,51.0980767 C430.984859,53.9626245 431.700996,57.2363934 431.700996,60.9193834 C431.700996,64.6023735 430.984859,67.8761424 429.552585,70.7406902 C428.120311,73.605238 426.094666,75.8764152 423.475651,77.5542218 C420.856636,79.2320284 417.910244,80.0709317 414.636475,80.0709317 Z M473.605238,93.4524621 L473.605238,59.5689538 C473.605238,55.3948984 474.976129,51.9369799 477.71791,49.1951985 C480.459692,46.453417 483.835766,45.0825263 487.846133,45.0825263 C489.237485,45.0825263 490.628836,45.2462147 492.020188,45.5735916 C493.41154,45.9009685 494.557359,46.3101896 495.457646,46.8012549 L495.457646,46.8012549 L500,28.3863047 C499.099714,28.0589278 498.015278,27.7929341 496.746692,27.5883236 C495.478107,27.383713 494.107216,27.2814077 492.63402,27.2814077 C488.787341,27.2814077 485.124812,28.4067658 481.646433,30.6574819 C478.168053,32.9081981 475.364889,35.7932069 473.236939,39.3125085 L473.236939,39.3125085 L472.991406,28.6318374 L456.78625,28.6318374 L456.78625,93.4524621 L473.605238,93.4524621 Z" id="edvisor" fill="#2D2E2E"></path>
            <path d="M33.2492157,26.9540308 C51.6122504,26.9540308 66.4984313,41.8402118 66.4984313,60.2032465 C66.4984313,78.5662812 51.6122504,93.4524621 33.2492157,93.4524621 C14.8861809,93.4524621 0,78.5662812 0,60.2032465 C0,41.8402118 14.8861809,26.9540308 33.2492157,26.9540308 Z M54.5628154,61.0557905 L13.6407039,61.0557905 C13.6407039,72.3561196 22.8014306,81.5168463 34.1017597,81.5168463 C45.4020887,81.5168463 54.5628154,72.3561196 54.5628154,61.0557905 Z" id="Combined-Shape" fill="#0792D4"></path>
        </g>
    </g>
</svg>