<svg width="47" height="46" viewBox="0 0 47 46" fill="none" xmlns="http://www.w3.org/2000/svg">
<path fill-rule="evenodd" clip-rule="evenodd" d="M19.0903 2.95724C19.8193 1.68423 21.0649 0 23.2603 0C25.4556 0 26.7013 1.68424 27.4302 2.95725C28.194 4.29102 28.9594 6.20235 29.8555 8.44026L30.0124 8.83219C30.5692 10.2225 30.9246 11.1022 31.2633 11.7476C31.5772 12.3458 31.7873 12.561 31.9589 12.6888C32.1304 12.8165 32.396 12.9557 33.0573 13.0843C33.7714 13.2232 34.7143 13.3106 36.2041 13.4442L36.9068 13.5073C39.1126 13.705 41.0207 13.876 42.4279 14.2086C43.8112 14.5356 45.6455 15.2268 46.3103 17.2068C46.9747 19.1853 45.9315 20.844 45.0273 21.941C44.107 23.0574 42.6901 24.3484 41.0517 25.8412L39.7471 27.0299C38.8304 27.8653 38.2525 28.3946 37.8411 28.8404C37.4586 29.2548 37.3351 29.4782 37.2709 29.6427C37.2306 29.7459 37.1971 29.8517 37.1707 29.9593C37.1284 30.1311 37.1008 30.3854 37.1749 30.9452C37.2546 31.5473 37.4223 32.3137 37.6908 33.5255L37.8827 34.3918C38.3347 36.4322 38.7149 38.1483 38.8634 39.4663C38.9975 40.6559 39.0785 42.4098 37.9124 43.7103C37.3024 44.3905 36.5092 44.8808 35.6274 45.1218C33.9401 45.5829 32.4082 44.7209 31.407 44.0671C30.2975 43.3426 28.9367 42.2319 27.3194 40.9119L27.2113 40.8236C26.0546 39.8795 25.3106 39.2755 24.7008 38.867C24.1255 38.4817 23.8435 38.3934 23.6582 38.3638C23.3946 38.3216 23.1259 38.3216 22.8623 38.3638C22.6771 38.3934 22.3951 38.4817 21.8197 38.867C21.2099 39.2755 20.4659 39.8795 19.3092 40.8236L19.201 40.9119C17.5838 42.2319 16.223 43.3426 15.1135 44.0671C14.1124 44.7209 12.5805 45.5829 10.8931 45.1218C10.0113 44.8808 9.21813 44.3905 8.60813 43.7103C7.44205 42.4098 7.52306 40.6559 7.6571 39.4663C7.8056 38.1483 8.18581 36.4322 8.63786 34.3918L8.82977 33.5255C9.0982 32.3137 9.26591 31.5473 9.34563 30.9452C9.41976 30.3854 9.39214 30.1311 9.34988 29.9593C9.32339 29.8517 9.2899 29.7459 9.24961 29.6427C9.18541 29.4782 9.06189 29.2548 8.67945 28.8404C8.268 28.3946 7.69015 27.8653 6.77342 27.0299L5.46894 25.8412C3.83045 24.3484 2.41357 23.0574 1.49326 21.941C0.58901 20.844 -0.454147 19.1853 0.210207 17.2068C0.87507 15.2268 2.70936 14.5356 4.09258 14.2086C5.49985 13.876 7.40795 13.705 9.61378 13.5073C9.67391 13.5019 9.73427 13.4965 9.79484 13.491L10.3164 13.4442C11.8062 13.3106 12.7491 13.2232 13.4632 13.0843C14.1246 12.9557 14.3902 12.8165 14.5616 12.6888C14.7332 12.561 14.9433 12.3458 15.2572 11.7476C15.5959 11.1022 15.9513 10.2225 16.5081 8.83218L16.597 8.61024C16.6198 8.55337 16.6424 8.49671 16.6651 8.44025C17.5612 6.20235 18.3265 4.29102 19.0903 2.95724Z" fill="#CF95FB"/>
</svg>
