<svg width="33" height="33" viewBox="0 0 33 33" fill="none" xmlns="http://www.w3.org/2000/svg">
<path fill-rule="evenodd" clip-rule="evenodd" d="M0 8.22667C0 3.68321 3.68321 0 8.22667 0H18.0987C22.1272 0 25.4794 2.89566 26.1875 6.71916C30.011 7.42725 32.9067 10.7795 32.9067 14.808V24.68C32.9067 29.2235 29.2235 32.9067 24.68 32.9067H8.22667C3.68321 32.9067 0 29.2235 0 24.68V8.22667ZM18.0987 3.29067C20.2479 3.29067 22.0762 4.66421 22.7538 6.58134H3.57154C4.24915 4.66421 6.07751 3.29067 8.22667 3.29067H18.0987ZM23.0347 23.0347C24.8521 23.0347 26.3254 21.5614 26.3254 19.744C26.3254 17.9266 24.8521 16.4533 23.0347 16.4533C21.2173 16.4533 19.744 17.9266 19.744 19.744C19.744 21.5614 21.2173 23.0347 23.0347 23.0347Z" fill="#CF95FB"/>
</svg>
