<svg width="48" height="48" viewBox="0 0 48 48" fill="none" xmlns="http://www.w3.org/2000/svg">
<path fill-rule="evenodd" clip-rule="evenodd" d="M0 44.8398C0 43.3831 1.18091 42.2021 2.63763 42.2021H44.8397C46.2964 42.2021 47.4773 43.3831 47.4773 44.8398C47.4773 46.2965 46.2964 47.4774 44.8397 47.4774H2.63763C1.18091 47.4774 0 46.2965 0 44.8398Z" fill="#FCD53A"/>
<path fill-rule="evenodd" clip-rule="evenodd" d="M34.2892 0C31.3757 0 29.0139 2.36181 29.0139 5.27525V31.6515C29.0139 34.565 31.3757 36.9268 34.2892 36.9268C37.2026 36.9268 39.5644 34.565 39.5644 31.6515V5.27525C39.5644 2.36181 37.2026 0 34.2892 0Z" fill="#FCD53A"/>
<path fill-rule="evenodd" clip-rule="evenodd" d="M13.1881 15.8257C10.2747 15.8257 7.91284 18.1875 7.91284 21.1009V31.6514C7.91284 34.5649 10.2747 36.9267 13.1881 36.9267C16.1015 36.9267 18.4634 34.5649 18.4634 31.6514V21.1009C18.4634 18.1875 16.1015 15.8257 13.1881 15.8257Z" fill="#FCD53A"/>
</svg>
