<svg width="29" height="23" viewBox="0 0 29 23" fill="none" xmlns="http://www.w3.org/2000/svg">
<path d="M6.05405 14.0795C5.30088 14.0795 4.9243 14.0795 4.63663 13.933C4.38358 13.804 4.17785 13.5983 4.04892 13.3452C3.90234 13.0576 3.90234 12.681 3.90234 11.9278L3.90234 4.93477C3.90234 3.42843 3.90234 2.67526 4.1955 2.09992C4.45336 1.59383 4.86482 1.18237 5.37091 0.924501C5.94626 0.631348 6.69942 0.631348 8.20576 0.631348L21.116 0.631348C22.6224 0.631348 23.3755 0.631348 23.9509 0.9245C24.457 1.18237 24.8684 1.59383 25.1263 2.09991C25.4194 2.67526 25.4194 3.42843 25.4194 4.93476V11.9278C25.4194 12.681 25.4194 13.0576 25.2729 13.3452C25.1439 13.5983 24.9382 13.804 24.6852 13.933C24.3975 14.0795 24.0209 14.0795 23.2677 14.0795L6.05405 14.0795Z" fill="white"/>
<path d="M4.28475 22.2306C3.40755 22.2306 2.96895 22.2306 2.60909 22.1342C1.63256 21.8725 0.869802 21.1097 0.608141 20.1332C0.511719 19.7734 0.511719 19.6729 0.511719 18.7957C0.511719 18.3571 0.511719 18.1378 0.55993 17.9579C0.69076 17.4696 1.07214 17.0882 1.56041 16.9574C1.74033 16.9092 1.95963 16.9092 2.39823 16.9092L26.9229 16.9092C27.3615 16.9092 27.5808 16.9092 27.7608 16.9574C28.249 17.0882 28.6304 17.4696 28.7612 17.9579C28.8095 18.1378 28.8094 18.3571 28.8094 18.7957C28.8094 19.6729 28.8094 19.7734 28.713 20.1332C28.4514 21.1097 27.6886 21.8725 26.7121 22.1342C26.3522 22.2306 25.9136 22.2306 25.0364 22.2306L4.28475 22.2306Z" fill="white"/>
</svg>
