<svg width="40" height="40" viewBox="0 0 40 40" fill="none" xmlns="http://www.w3.org/2000/svg">
<path fill-rule="evenodd" clip-rule="evenodd" d="M10.0905 7.91406C11.0071 3.39861 14.9992 0 19.7852 0C24.5711 0 28.5633 3.39861 29.4798 7.91406H29.6777C35.1413 7.91406 39.5703 12.3431 39.5703 17.8066V29.6777C39.5703 35.1413 35.1413 39.5703 29.6777 39.5703H9.89258C4.42906 39.5703 0 35.1413 0 29.6777V17.8066C0 12.3431 4.42906 7.91406 9.89258 7.91406H10.0905ZM14.1874 7.91406C15.0022 5.60871 17.2008 3.95703 19.7852 3.95703C22.3695 3.95703 24.5681 5.60871 25.383 7.91406H14.1874ZM19.7852 15.8281C20.8779 15.8281 21.7637 16.7139 21.7637 17.8066V21.7637H25.7207C26.8134 21.7637 27.6992 22.6495 27.6992 23.7422C27.6992 24.8349 26.8134 25.7207 25.7207 25.7207H21.7637V29.6777C21.7637 30.7704 20.8779 31.6562 19.7852 31.6562C18.6925 31.6562 17.8066 30.7704 17.8066 29.6777V25.7207H13.8496C12.7569 25.7207 11.8711 24.8349 11.8711 23.7422C11.8711 22.6495 12.7569 21.7637 13.8496 21.7637H17.8066V17.8066C17.8066 16.7139 18.6925 15.8281 19.7852 15.8281Z" fill="#FCD53A"/>
</svg>
