<svg width="43" height="34" viewBox="0 0 43 34" fill="none" xmlns="http://www.w3.org/2000/svg">
<path fill-rule="evenodd" clip-rule="evenodd" d="M10.625 0C4.75697 0 0 4.75697 0 10.625V23.375C0 29.243 4.75697 34 10.625 34H31.875C37.743 34 42.5 29.243 42.5 23.375V10.625C42.5 4.75698 37.743 0 31.875 0H10.625ZM11.9526 8.96565C11.0361 8.23251 9.69888 8.38109 8.96573 9.29752C8.23259 10.214 8.38117 11.5512 9.2976 12.2843L14.6127 16.5364C18.4931 19.6408 24.007 19.6408 27.8875 16.5364L33.2026 12.2843C34.119 11.5512 34.2676 10.214 33.5344 9.29752C32.8013 8.38109 31.464 8.23251 30.5476 8.96565L25.2325 13.2177C22.9042 15.0803 19.5959 15.0803 17.2676 13.2177L11.9526 8.96565Z" fill="#CF95FB"/>
</svg>
