<svg width="32" height="45" viewBox="0 0 32 45" fill="none" xmlns="http://www.w3.org/2000/svg">
<path d="M0 6.34319V38.0592C0 41.5638 2.83858 44.4023 6.34319 44.4023H25.3728C28.8774 44.4023 31.716 41.5638 31.716 38.0592V6.34319C31.716 2.83858 28.8774 0 25.3728 0H6.34319C2.83858 0 0 2.83858 0 6.34319ZM11.1006 12.6864H7.92899C7.05363 12.6864 6.34319 11.9759 6.34319 11.1006V7.92899C6.34319 7.05363 7.05363 6.34319 7.92899 6.34319H11.1006C11.9759 6.34319 12.6864 7.05363 12.6864 7.92899V11.1006C12.6864 11.9759 11.9759 12.6864 11.1006 12.6864ZM23.787 12.6864H20.6154C19.74 12.6864 19.0296 11.9759 19.0296 11.1006V7.92899C19.0296 7.05363 19.74 6.34319 20.6154 6.34319H23.787C24.6623 6.34319 25.3728 7.05363 25.3728 7.92899V11.1006C25.3728 11.9759 24.6623 12.6864 23.787 12.6864ZM11.1006 25.3728H7.92899C7.05363 25.3728 6.34319 24.6623 6.34319 23.787V20.6154C6.34319 19.74 7.05363 19.0296 7.92899 19.0296H11.1006C11.9759 19.0296 12.6864 19.74 12.6864 20.6154V23.787C12.6864 24.6623 11.9759 25.3728 11.1006 25.3728ZM23.787 25.3728H20.6154C19.74 25.3728 19.0296 24.6623 19.0296 23.787V20.6154C19.0296 19.74 19.74 19.0296 20.6154 19.0296H23.787C24.6623 19.0296 25.3728 19.74 25.3728 20.6154V23.787C25.3728 24.6623 24.6623 25.3728 23.787 25.3728ZM11.1006 38.0592H7.92899C7.05363 38.0592 6.34319 37.3487 6.34319 36.4734V33.3018C6.34319 32.4264 7.05363 31.716 7.92899 31.716H11.1006C11.9759 31.716 12.6864 32.4264 12.6864 33.3018V36.4734C12.6864 37.3487 11.9759 38.0592 11.1006 38.0592ZM23.787 38.0592H20.6154C19.74 38.0592 19.0296 37.3487 19.0296 36.4734V33.3018C19.0296 32.4264 19.74 31.716 20.6154 31.716H23.787C24.6623 31.716 25.3728 32.4264 25.3728 33.3018V36.4734C25.3728 37.3487 24.6623 38.0592 23.787 38.0592Z" fill="#FCD53A"/>
</svg>
