<svg width="48" height="48" viewBox="0 0 48 48" fill="none" xmlns="http://www.w3.org/2000/svg">
  <!-- Left user (smaller, behind) -->
  <circle cx="16" cy="14" r="6" fill="#1C5CFF" fill-opacity="0.7"/>
  <path d="M8 32C8 26 11 22 16 22C21 22 24 26 24 32V34H8V32Z" fill="#1C5CFF" fill-opacity="0.7"/>
  <!-- Right user (smaller, behind) -->
  <circle cx="32" cy="14" r="6" fill="#1C5CFF" fill-opacity="0.7"/>
  <path d="M24 32C24 26 27 22 32 22C37 22 40 26 40 32V34H24V32Z" fill="#1C5CFF" fill-opacity="0.7"/>
  <!-- Center user (main, in front) -->
  <circle cx="24" cy="12" r="7" fill="#1C5CFF"/>
  <path d="M14 36C14 30 18 26 24 26C30 26 34 30 34 36V40H14V36Z" fill="#1C5CFF"/>
</svg>
