<svg width="30" height="47" viewBox="0 0 30 47" fill="none" xmlns="http://www.w3.org/2000/svg">
<path d="M18.471 42.0754H11.2496L5.23181 36.0576H24.4889L18.471 42.0754Z" fill="#CF95FB"/>
<path d="M16.6224 2.03586C15.6959 0.866254 14.0247 0.866253 13.0982 2.03586C10.0296 5.91002 4.0282 15.0899 4.0282 27.6319C4.0282 34.8292 10.046 40.8711 14.8603 40.8711C19.6746 40.8711 25.6924 34.8292 25.6924 27.6319C25.6924 15.0899 19.691 5.91002 16.6224 2.03586ZM12.4532 21.6141C11.1232 20.2841 11.1232 18.1297 12.4532 16.7998C13.7831 15.4699 15.9375 15.4699 17.2674 16.7998C18.5974 18.1297 18.5974 20.2841 17.2674 21.6141C15.9375 22.944 13.7831 22.944 12.4532 21.6141Z" fill="#CF95FB"/>
<path d="M23.8716 28.6732C23.8716 28.6732 29.337 32.3164 29.3358 35.9595C29.3358 39.9452 27.3975 43.9314 26.3485 45.7969C26.0429 46.3403 25.3004 46.3662 24.9263 45.8674L18.4712 37.2606L23.8716 28.6732ZM5.8494 28.6732C5.8494 28.6732 0.384012 32.3164 0.385216 35.9595C0.385216 39.9452 2.32351 43.9314 3.3725 45.7969C3.67806 46.3403 4.42063 46.3662 4.79468 45.8674L11.2498 37.2606L5.8494 28.6732Z" fill="#CF95FB"/>
</svg>
