<svg width="53" height="42" viewBox="0 0 53 42" fill="none" xmlns="http://www.w3.org/2000/svg">
<path d="M9.45 26.25C7.97986 26.25 7.24479 26.25 6.68328 25.9639C6.18935 25.7122 5.78778 25.3106 5.53611 24.8167C5.25 24.2552 5.25 23.5201 5.25 22.05L5.25 8.4C5.25 5.45973 5.25 3.98959 5.82222 2.86655C6.32555 1.8787 7.1287 1.07555 8.11655 0.572217C9.23959 1.52551e-06 10.7097 1.23017e-06 13.65 1.10165e-06L38.85 1.21622e-10C41.7903 -1.28402e-07 43.2604 3.91155e-08 44.3834 0.572216C45.3713 1.07555 46.1744 1.8787 46.6778 2.86655C47.25 3.98959 47.25 5.45972 47.25 8.4V22.05C47.25 23.5201 47.25 24.2552 46.9639 24.8167C46.7122 25.3106 46.3107 25.7122 45.8167 25.9639C45.2552 26.25 44.5201 26.25 43.05 26.25L9.45 26.25Z" fill="#1C5CFF"/>
<path d="M7 42C5.37255 42 4.55883 42 3.8912 41.8211C2.07947 41.3357 0.664342 39.9205 0.178889 38.1088C1.56462e-07 37.4412 1.03552e-07 36.6275 0 35C-5.16581e-08 34.1863 -7.82311e-08 33.7794 0.0894446 33.4456C0.332171 32.5397 1.03973 31.8322 1.9456 31.5894C2.27941 31.5 2.68627 31.5 3.5 31.5L49 31.5C49.8137 31.5 50.2206 31.5 50.5544 31.5894C51.4603 31.8322 52.1678 32.5397 52.4106 33.4456C52.5 33.7794 52.5 34.1863 52.5 35C52.5 36.6274 52.5 37.4412 52.3211 38.1088C51.8357 39.9205 50.4205 41.3357 48.6088 41.8211C47.9412 42 47.1275 42 45.5 42L7 42Z" fill="#1C5CFF"/>
</svg>
