<svg width="12" height="19" viewBox="0 0 12 19" fill="none" xmlns="http://www.w3.org/2000/svg">
<path fill-rule="evenodd" clip-rule="evenodd" d="M6.94108 0.481532C6.72964 0.189795 6.38612 3.10748e-05 5.99827 0C5.57335 0 5.20152 0.227745 4.99839 0.567831L0.884451 7.15013C-0.389849 9.18901 -0.278872 11.8017 1.16373 13.7252L2.73984 15.8266C2.95962 16.1197 3.30453 16.2921 3.67082 16.2921H8.32572C8.69201 16.2921 9.03692 16.1197 9.2567 15.8266L10.8328 13.7252C12.2754 11.8017 12.3864 9.18901 11.1121 7.15013L6.9927 0.5591C6.97651 0.532525 6.95928 0.506651 6.94108 0.481532ZM7.1619 5.81862C7.1619 5.17591 6.64088 4.65489 5.99818 4.65489C5.35547 4.65489 4.83445 5.17591 4.83445 5.81862V10.4735C4.83445 11.1162 5.35547 11.6372 5.99818 11.6372C6.64088 11.6372 7.1619 11.1162 7.1619 10.4735V5.81862Z" fill="#FCD53A"/>
<rect x="1.79492" y="15.8938" width="8.40404" height="3.1062" rx="1" fill="#FCD53A"/>
</svg>
