<svg width="47" height="47" viewBox="0 0 47 47" fill="none" xmlns="http://www.w3.org/2000/svg">
<path fill-rule="evenodd" clip-rule="evenodd" d="M23.4821 46.9641C10.5133 46.9641 0 36.4508 0 23.4821C0 10.5133 10.5133 0 23.4821 0C36.4508 0 46.9641 10.5133 46.9641 23.4821C46.9641 36.4508 36.4508 46.9641 23.4821 46.9641ZM14.777 24.1698C13.86 25.0869 13.86 26.5737 14.777 27.4907L21.8216 34.5353C22.262 34.9757 22.8593 35.2231 23.4821 35.2231C24.1048 35.2231 24.7021 34.9757 25.1425 34.5353L32.1871 27.4907C33.1041 26.5737 33.1041 25.0869 32.1871 24.1698C31.2701 23.2528 29.7833 23.2528 28.8662 24.1698L25.8303 27.2058L25.8303 14.0892C25.8303 12.7924 24.7789 11.741 23.4821 11.741C22.1852 11.741 21.1339 12.7924 21.1339 14.0892L21.1339 27.2058L18.0979 24.1698C17.1808 23.2528 15.694 23.2528 14.777 24.1698Z" fill="#1C5CFF"/>
</svg>
