<svg width="46" height="46" viewBox="0 0 46 46" fill="none" xmlns="http://www.w3.org/2000/svg">
<path fill-rule="evenodd" clip-rule="evenodd" d="M0.748047 23.2969C0.748047 10.8705 10.8216 0.796875 23.248 0.796875C35.6745 0.796875 45.748 10.8705 45.748 23.2969C45.748 35.7233 35.6745 45.7969 23.248 45.7969C10.8216 45.7969 0.748047 35.7233 0.748047 23.2969ZM25.498 12.0469C25.498 10.8042 24.4907 9.79688 23.248 9.79688C22.0054 9.79688 20.998 10.8042 20.998 12.0469V23.2969C20.998 23.8936 21.2351 24.4659 21.6571 24.8879L26.1571 29.3879C27.0357 30.2665 28.4604 30.2665 29.339 29.3879C30.2177 28.5092 30.2177 27.0846 29.339 26.2059L25.498 22.3649V12.0469Z" fill="#CF95FB"/>
</svg>
