<svg width="19" height="20" viewBox="0 0 19 20" fill="none" xmlns="http://www.w3.org/2000/svg">
<path fill-rule="evenodd" clip-rule="evenodd" d="M5.4256 4.94926H4.55052C4.55052 2.21586 6.76638 0 9.49978 0C12.2332 0 14.449 2.21586 14.449 4.94926H13.5744C16.1243 4.94926 18.2569 6.88661 18.5009 9.42482L18.9768 14.3741C19.2564 17.2812 16.9709 19.7971 14.0503 19.7971H4.94971C2.02914 19.7971 -0.256365 17.2812 0.0231698 14.3741L0.499061 9.42482C0.743119 6.88661 2.87569 4.94926 5.4256 4.94926ZM6.53022 4.94926C6.53022 3.30922 7.85974 1.97971 9.49978 1.97971C11.1398 1.97971 12.4693 3.30922 12.4693 4.94926H6.53022Z" fill="#CF95FB"/>
</svg>
