<svg width="38" height="38" viewBox="0 0 38 38" fill="none" xmlns="http://www.w3.org/2000/svg">
<path fill-rule="evenodd" clip-rule="evenodd" d="M9.52661 7.47183C10.392 3.2087 14.1611 0 18.6796 0C23.1981 0 26.9671 3.2087 27.8325 7.47183H28.0193C33.1776 7.47183 37.3591 11.6534 37.3591 16.8116V28.0193C37.3591 33.1776 33.1776 37.3591 28.0193 37.3591H9.33978C4.18156 37.3591 0 33.1776 0 28.0193V16.8116C0 11.6534 4.18156 7.47183 9.33978 7.47183H9.52661ZM13.3946 7.47183C14.1639 5.2953 16.2396 3.73591 18.6796 3.73591C21.1195 3.73591 23.1953 5.2953 23.9646 7.47183H13.3946Z" fill="#1C5CFF"/>
</svg>
