<svg width="38" height="38" viewBox="0 0 38 38" fill="none" xmlns="http://www.w3.org/2000/svg">
<path d="M15.0789 19.2463C15.0789 17.2 16.7378 15.5411 18.7842 15.5411C20.8305 15.5411 22.4895 17.2 22.4895 19.2463C22.4895 21.2927 20.8305 22.9516 18.7842 22.9516C16.7378 22.9516 15.0789 21.2927 15.0789 19.2463Z" fill="#CF95FB"/>
<path fill-rule="evenodd" clip-rule="evenodd" d="M13.3797 4.65812C13.6033 2.42247 15.4845 0.719971 17.7313 0.719971H19.8384C22.0853 0.719971 23.9665 2.42272 24.1901 4.65826C24.2431 5.18877 24.8654 5.44613 25.2775 5.10894C27.0164 3.68625 29.5503 3.81264 31.139 5.40129L32.6291 6.89136C34.2178 8.4801 34.3442 11.0142 32.9214 12.7531C32.584 13.1655 32.8416 13.7879 33.3722 13.841C35.6078 14.0645 37.3105 15.9458 37.3105 18.1927V20.2999C37.3105 22.5466 35.6081 24.4278 33.3725 24.6513C32.8426 24.7043 32.5846 25.3264 32.9222 25.739C34.3449 27.4778 34.2187 30.012 32.6299 31.6008L31.14 33.0907C29.5512 34.6795 27.0171 34.8059 25.2781 33.3831C24.8658 33.0458 24.2432 33.3032 24.1901 33.834C23.9665 36.0697 22.0852 37.7727 19.8381 37.7727H17.7316C15.4847 37.7727 13.6032 36.0701 13.3797 33.8342C13.3266 33.3039 12.7041 33.0457 12.2911 33.3836C10.552 34.8064 8.01749 34.6803 6.42848 33.0913L4.93911 31.6019C3.3502 30.013 3.22395 27.4786 4.64678 25.7396C4.98452 25.3268 4.72646 24.7044 4.19617 24.6514C1.9604 24.4278 0.257812 22.5464 0.257812 20.2995V18.1931C0.257812 15.9459 1.9607 14.0645 4.19653 13.8409C4.72742 13.7878 4.98507 13.1651 4.64754 12.7526C3.22466 11.0135 3.35107 8.47916 4.93993 6.8903L6.42949 5.40074C8.01841 3.81182 10.5528 3.68572 12.2917 5.10846C12.7045 5.44623 13.3267 5.188 13.3797 4.65812ZM18.7842 11.8358C14.6914 11.8358 11.3736 15.1536 11.3736 19.2463C11.3736 23.3391 14.6914 26.6569 18.7842 26.6569C22.8769 26.6569 26.1947 23.3391 26.1947 19.2463C26.1947 15.1536 22.8769 11.8358 18.7842 11.8358Z" fill="#CF95FB"/>
</svg>
