<svg width="35" height="44" viewBox="0 0 35 44" fill="none" xmlns="http://www.w3.org/2000/svg">
<path fill-rule="evenodd" clip-rule="evenodd" d="M8.74113 33.6844L5.16591 30.1091C1.85341 26.7966 0 22.2626 0 17.5917C0 7.95687 7.80684 0 17.4822 0C27.1576 0 34.9645 7.95687 34.9645 17.5917C34.9645 22.2626 33.111 26.7966 29.7985 30.1091L26.2234 33.6842V35.7992C26.2234 38.7939 24.5315 41.5316 21.8529 42.8709C20.755 43.4198 19.5445 43.7056 18.317 43.7056H16.6477C15.4202 43.7056 14.2096 43.4198 13.1118 42.8709C10.4332 41.5316 8.74121 38.7939 8.74116 35.7992L8.74113 33.6844ZM13.1117 34.9645L13.1117 35.7991C13.1117 37.1384 13.8684 38.3628 15.0663 38.9617C15.5573 39.2072 16.0987 39.335 16.6477 39.335H18.317C18.866 39.335 19.4073 39.2072 19.8983 38.9617C21.0962 38.3628 21.8529 37.1384 21.8529 35.7992V34.9645H13.1117ZM19.4373 16.2742C19.977 15.1947 19.5395 13.8821 18.46 13.3423C17.3805 12.8026 16.0679 13.2401 15.5281 14.3196L13.3429 18.6902C12.8031 19.7696 13.2407 21.0823 14.3201 21.622L16.7361 22.83L15.5281 25.246C15.3764 25.5494 15.2974 25.884 15.2974 26.2233V30.5938H19.668V26.7392L21.6226 22.83C22.1623 21.7505 21.7248 20.4379 20.6453 19.8982L18.2293 18.6902L19.4373 16.2742Z" fill="#09051A"/>
<rect x="7.22266" y="12.9258" width="20.519" height="17.854" fill="#09051A"/>
</svg>
