<svg width="91" height="21" viewBox="0 0 91 21" fill="none" xmlns="http://www.w3.org/2000/svg">
<path d="M15.5096 20.7264L9.58683 20.6169C7.66912 20.5788 5.74671 20.655 3.8667 20.2597C1.00663 19.6692 0.804021 16.7738 0.59199 14.3452C0.299858 10.9307 0.412942 7.45437 0.964223 4.0685C1.2752 2.16842 2.50027 1.03503 4.39442 0.91122C10.7883 0.463581 17.2247 0.515964 23.6044 0.725497C24.2782 0.744546 24.9567 0.849312 25.6211 0.968365C28.9005 1.54934 28.9806 4.83044 29.1927 7.59247C29.4047 10.3831 29.3152 13.188 28.9099 15.9595C28.5848 18.2549 27.9629 20.1788 25.3384 20.3645C22.0496 20.6073 18.8361 20.8026 15.5378 20.7407C15.5378 20.7264 15.519 20.7264 15.5096 20.7264ZM12.0275 14.9166C14.506 13.4785 16.9372 12.0641 19.4015 10.6355C16.9184 9.19731 14.4918 7.78296 12.0275 6.35432V14.9166Z" fill="#09051A"/>
<path d="M76.699 18.1171C76.5859 18.5838 76.487 18.9505 76.388 19.341H74.0698V1.26855H76.7744V7.93559C76.9158 7.75463 76.9864 7.67843 77.0477 7.59747C77.5094 6.95458 78.1078 6.53551 78.8806 6.3736C80.1103 6.13073 81.1611 6.67838 81.5333 7.87368C81.7736 8.61658 81.9291 9.41186 81.9479 10.1881C81.9856 12.1834 81.9574 14.174 81.8867 16.1694C81.8584 16.7789 81.6747 17.4028 81.4438 17.9742C80.6852 19.8601 78.2068 20.1458 76.977 18.5124C76.9016 18.4124 76.8309 18.3028 76.699 18.1171ZM76.8309 13.1454V16.4503C76.8309 16.9885 77.1136 17.3171 77.6461 17.4409C78.1691 17.5647 78.5932 17.3599 78.8052 16.8694C78.8947 16.6646 78.9842 16.4503 78.9889 16.236C79.0408 14.2169 79.0879 12.1977 79.102 10.1738C79.102 9.7976 79.0125 9.4071 78.8994 9.04041C78.6874 8.37847 78.1031 8.18322 77.5283 8.56896C77.0948 8.86421 76.8309 9.28328 76.8309 9.84045V13.1454ZM69.4805 6.63075H72.3123V19.3505H70.1025C70.0224 18.8695 69.9423 18.3743 69.8481 17.7933C69.6973 18.0171 69.6078 18.16 69.5135 18.3028C68.7785 19.3743 67.7372 19.741 66.5074 19.5457C65.4567 19.3743 64.8253 18.5552 64.6839 17.2123C64.6415 16.8123 64.6227 16.4075 64.6227 16.0075C64.6132 13.0311 64.6227 10.0452 64.6227 7.06887V6.62123H67.4874V7.14031C67.4874 10.0167 67.478 12.8882 67.4969 15.7646C67.4969 16.1741 67.5393 16.598 67.6099 17.0075C67.69 17.4266 67.9916 17.579 68.3968 17.5504C69.0518 17.498 69.5041 17.0075 69.5041 16.3503V7.19269C69.4805 7.00697 69.4805 6.83553 69.4805 6.63075ZM49.9831 6.62123H52.829V7.15935C52.829 10.0214 52.8196 12.8787 52.8385 15.7313C52.8385 16.1408 52.8762 16.5646 52.961 16.9647C53.0693 17.4361 53.3426 17.5885 53.8091 17.5266C54.4546 17.4361 54.8457 16.9837 54.8504 16.3218V7.21174V6.64028H57.6822V19.3505H55.4818C55.4017 18.879 55.3216 18.3933 55.2179 17.779C55.0766 17.9933 54.9965 18.1171 54.9164 18.2457C54.1813 19.3362 53.1494 19.7362 51.8914 19.541C50.8831 19.3886 50.2658 18.6362 50.0773 17.4028C50.0255 17.017 49.9878 16.6361 49.9878 16.2503C49.9784 13.1597 49.9784 10.0548 49.9784 6.96411L49.9831 6.62123ZM48.5224 13.4121C48.513 13.8407 48.4848 14.2693 48.4612 14.6979C48.3528 15.9836 48.301 17.8076 47.2738 18.7457C46.6189 19.3362 45.7896 19.5505 44.9321 19.5791C44.5504 19.5886 44.164 19.5886 43.7824 19.5362C41.9778 19.26 41.1391 18.4552 40.8375 16.4503C40.4935 14.1359 40.4653 11.7834 40.8752 9.469C41.2993 7.07364 42.7599 6.22597 45.031 6.38312C47.1513 6.53551 48.0984 7.94035 48.3481 9.94046C48.4848 11.0881 48.5507 12.2501 48.5224 13.4121ZM45.6388 12.974C45.6388 12.1596 45.6577 11.3405 45.6294 10.5262C45.6106 10.0548 45.5493 9.57854 45.4504 9.11184C45.3373 8.57372 44.998 8.31656 44.574 8.32609C44.1593 8.33561 43.8672 8.59277 43.7164 9.09279C43.6646 9.27852 43.608 9.46901 43.608 9.65473C43.608 10.931 43.5986 12.212 43.5892 13.4883C43.5798 14.6788 43.429 15.9265 43.8012 17.0647C43.9143 17.4123 44.2064 17.6028 44.5881 17.6028C44.9603 17.6028 45.2053 17.4171 45.342 17.0837C45.4504 16.8266 45.5446 16.5456 45.5446 16.2694C45.5776 15.1741 45.6388 14.074 45.6388 12.974ZM36.6817 10.5786C36.9314 9.34519 37.167 8.14036 37.4262 6.93077C37.7513 5.39259 38.1141 3.85441 38.4345 2.31147C38.5146 1.93526 38.6654 1.84478 39.0188 1.8543C39.7773 1.88287 40.5501 1.86383 41.3605 1.86383C41.0967 2.84483 40.8375 3.77822 40.5831 4.69731C39.7774 7.58319 38.9716 10.4786 38.1753 13.374C38.1141 13.5978 38.0858 13.8407 38.0858 14.0788C38.0764 15.6598 38.0858 17.2361 38.0858 18.8171V19.3315H35.32C35.3106 19.1886 35.2917 19.0457 35.2917 18.9029C35.2917 18.0076 35.221 17.1075 35.3011 16.2218C35.5038 14.0931 34.8347 12.1358 34.2928 10.1548C33.5766 7.53557 32.851 4.90685 32.1348 2.28766C32.0971 2.16384 32.083 2.0305 32.0453 1.87811H34.8677C35.4613 4.76875 36.0597 7.65938 36.6817 10.5786ZM90.7967 13.8978H86.0284C86.0802 14.8645 86.099 15.7836 86.198 16.6932C86.2687 17.3266 86.6126 17.598 87.1545 17.6028C87.7199 17.6123 88.0497 17.3266 88.1817 16.698C88.2241 16.4932 88.2523 16.2884 88.2712 16.0789C88.29 15.8932 88.2995 15.6932 88.3136 15.4265C89.1193 15.4693 89.9062 15.517 90.6836 15.5503C91.136 16.9075 90.3208 18.6505 88.9497 19.1886C87.8707 19.6172 86.7634 19.6172 85.6609 19.2886C84.8457 19.0457 84.2379 18.5219 83.9646 17.7171C83.7102 16.9647 83.4699 16.1789 83.418 15.3931C83.2767 13.4549 83.2248 11.4977 83.517 9.55472C83.5688 9.2309 83.6583 8.92136 83.7573 8.60705C84.1531 7.31174 85.0153 6.51646 86.3488 6.38312C87.0744 6.31169 87.8236 6.34026 88.5398 6.46408C89.6989 6.66885 90.3161 7.51175 90.5847 8.61658C90.7072 9.13565 90.7967 9.66902 90.8156 10.1976C90.8203 11.412 90.7967 12.6168 90.7967 13.8978ZM88.0874 12.2263C88.0874 11.2691 88.0969 10.3691 88.078 9.46424C88.078 9.24995 87.9979 9.02612 87.9178 8.82135C87.7576 8.42133 87.4231 8.3118 87.0226 8.3118C86.6221 8.3118 86.3676 8.51657 86.2687 8.88326C85.9671 9.98332 86.0661 11.1072 86.0755 12.2358C86.7964 12.2263 87.4513 12.2263 88.0874 12.2263Z" fill="#09051A"/>
<path d="M59.8682 4.19673H57.0647V1.90137H65.4328V4.18245H62.6482V19.3309H59.8729L59.8682 4.19673Z" fill="#09051A"/>
</svg>
