<svg width="99" height="20" viewBox="0 0 99 20" fill="none" xmlns="http://www.w3.org/2000/svg">
<path d="M6.58839 19.695H2.88972V10.3762H0.370117V7.34213H2.88962V5.1832C2.88962 2.62486 4.004 0.790039 7.69266 0.790039C8.47282 0.790039 9.69763 0.948968 9.69763 0.948968V3.76623H8.41118C7.10038 3.76623 6.58859 4.16921 6.58859 5.2833V7.34213H9.64855L9.37606 10.3762H6.58849L6.58839 19.695ZM15.0751 7.09967C15.0212 7.09967 14.9657 7.10165 14.9109 7.10304C11.4812 7.10304 9.9121 9.71039 9.9121 13.4116C9.9121 18.0741 11.9475 19.9402 14.9377 19.9402C16.6485 19.9402 17.7725 19.2124 18.4556 17.8542V19.6963H21.9736V7.34342H18.4556V9.24312C17.8978 8.0209 16.7424 7.11415 15.0751 7.09967ZM15.9696 10.0186C17.4101 10.0186 18.2746 11.0341 18.2746 12.7614L18.278 14.5256C18.278 15.6898 17.5639 17.0518 15.9696 17.0518C13.5186 17.0518 13.5841 14.377 13.5841 13.4861C13.5841 10.4894 14.89 10.0186 15.9696 10.0186ZM23.3943 13.5205C23.3943 12.0194 23.3233 7.10771 29.6548 7.10771C32.1964 7.10771 33.2577 7.92447 33.2577 7.92447L32.4047 10.5984C32.4047 10.5984 31.3448 10.0085 29.9637 10.0085C28.1948 10.0085 27.0661 11.0449 27.0661 12.8684L27.0681 14.176C27.0681 15.9282 28.1571 17.0978 29.9673 17.0978C31.2255 17.0978 32.3852 16.5024 32.3852 16.5024L33.236 19.1204C33.236 19.1204 32.2656 19.9423 29.6726 19.9423C23.6439 19.9423 23.3944 15.5356 23.3944 13.5205H23.3943ZM53.8848 7.10304C57.3145 7.10304 58.9084 9.71039 58.9084 13.4116C58.9084 18.0741 56.8729 19.9402 53.8827 19.9402C52.1719 19.9402 50.9073 19.2125 50.2241 17.8542V19.6963L46.7504 19.6949V1.16563L50.4386 0.840535V9.07576C50.9709 7.63499 52.7202 7.10304 53.8849 7.10304H53.8848ZM52.8508 10.0186C51.4103 10.0186 50.4386 11.0341 50.4386 12.7614L50.4351 14.5256C50.433 15.6898 51.1081 17.0518 52.8508 17.0518C55.3018 17.0518 55.2363 14.377 55.2363 13.4861C55.2363 10.4894 53.9305 10.0186 52.8508 10.0186ZM39.657 7.11326C35.767 7.11326 33.7133 9.25681 33.7133 13.0661V13.7739C33.7133 18.718 36.5973 19.991 40.0355 19.991C43.3775 19.991 44.8902 19.0462 44.8902 19.0462L44.2001 16.5303C44.2001 16.5303 42.4207 17.2955 40.4777 17.2955C38.4636 17.2955 37.5973 16.7767 37.3753 14.8203H45.1851V12.802C45.1851 8.66981 42.8802 7.11316 39.6569 7.11316L39.657 7.11326ZM39.7507 9.63251C41.0972 9.63251 41.9697 10.467 41.9218 12.4025H37.382C37.4608 10.3654 38.4017 9.63261 39.7507 9.63261V9.63251ZM66.2624 7.0963C62.2677 7.0963 60.1647 9.3715 60.1647 13.4488C60.1647 19.043 63.7898 19.9435 66.2691 19.9435C69.8986 19.9435 72.3132 17.9686 72.3132 13.4996C72.3132 8.84808 69.5982 7.0963 66.2624 7.0963ZM66.2122 10.0287C67.9687 10.0287 68.6647 11.3574 68.6647 12.8698V14.1701C68.6647 16.0023 67.6908 17.062 66.2055 17.062C64.8164 17.062 63.8401 16.0707 63.8401 14.1701V12.8698C63.8401 10.8428 65.0018 10.0287 66.2122 10.0287ZM79.6607 7.0963C75.666 7.0963 73.563 9.3715 73.563 13.4488C73.563 19.043 77.1881 19.9435 79.6674 19.9435C83.2968 19.9435 85.7115 17.9686 85.7115 13.4996C85.7115 8.84808 82.9964 7.0963 79.6607 7.0963ZM79.6105 10.0287C81.367 10.0287 82.0629 11.3574 82.0629 12.8698V14.1701C82.0629 16.0023 81.089 17.062 79.6038 17.062C78.2147 17.062 77.2384 16.0707 77.2384 14.1701V12.8698C77.2384 10.8428 78.4001 10.0287 79.6105 10.0287ZM87.1053 19.695V1.16563L90.8041 0.840535V13.2601L94.4739 7.34213H98.3801L94.552 13.4714L98.5276 19.695H94.6102L90.8041 13.652V19.695H87.1053Z" fill="#09051A"/>
</svg>
