<svg width="81" height="27" viewBox="0 0 81 27" fill="none" xmlns="http://www.w3.org/2000/svg">
<path d="M9.87643 0H10.5896C13.0653 0.0543956 15.5007 1.06071 17.2498 2.84217C16.604 3.50852 15.9447 4.14766 15.3123 4.81401C14.3301 3.91648 13.146 3.22294 11.8543 2.97816C9.94371 2.57019 7.88508 2.93736 6.28392 4.03887C4.53476 5.19478 3.35071 7.15302 3.09506 9.24725C2.81251 11.3143 3.39108 13.4901 4.72313 15.0948C6.00136 16.6586 7.95235 17.6378 9.97062 17.7058C11.8543 17.8146 13.8188 17.2298 15.1912 15.8971C16.2676 14.9588 16.7654 13.5309 16.9269 12.1438C14.6934 12.1438 12.4598 12.1574 10.2263 12.1438V9.34244H19.6314C20.1158 12.3478 19.4161 15.7339 17.1556 17.8825C15.6487 19.4056 13.5631 20.3032 11.4372 20.4799C9.37859 20.6839 7.25269 20.2896 5.4228 19.2832C3.22961 18.1001 1.48045 16.1011 0.619326 13.7485C-0.18798 11.5863 -0.201435 9.13846 0.552051 6.96264C1.23826 4.9772 2.55686 3.22294 4.2522 1.99904C5.88027 0.788736 7.85817 0.12239 9.87643 0Z" fill="#09051A"/>
<path d="M63.832 0.707031H66.7114V20.1262C65.7561 20.1262 64.7873 20.1398 63.832 20.1126C63.8455 13.6532 63.832 7.18009 63.832 0.707031V0.707031Z" fill="#09051A"/>
<path d="M26.0349 7.43801C27.811 7.09804 29.7351 7.47881 31.2017 8.55312C32.5338 9.50503 33.4622 11.0009 33.7447 12.6328C34.108 14.523 33.6505 16.59 32.4396 18.0859C31.1344 19.7585 28.9951 20.656 26.9095 20.5201C24.9989 20.4113 23.1421 19.4457 22.0119 17.8683C20.7336 16.1276 20.4242 13.7343 21.1238 11.6944C21.8235 9.50503 23.8014 7.83238 26.0349 7.43801V7.43801ZM26.4386 10.0218C25.712 10.2122 25.0393 10.6337 24.5549 11.2321C23.2497 12.8095 23.3305 15.3797 24.7702 16.8484C25.5909 17.6915 26.8288 18.0859 27.9725 17.8547C29.0354 17.6643 29.9638 16.9436 30.4751 15.9917C31.3632 14.3734 31.1075 12.1432 29.7486 10.8785C28.874 10.0626 27.5957 9.72261 26.4386 10.0218Z" fill="#09051A"/>
<path d="M40.2971 7.43804C42.3288 7.04367 44.5489 7.61483 46.0693 9.05631C48.5451 11.3001 48.8142 15.5022 46.7017 18.086C45.4235 19.7179 43.3514 20.6154 41.3062 20.5202C39.3552 20.4658 37.4311 19.4867 36.274 17.8684C34.9688 16.087 34.6863 13.6391 35.4263 11.5585C36.1664 9.43708 38.1039 7.81881 40.2971 7.43804V7.43804ZM40.7007 10.0218C39.9741 10.2122 39.3014 10.6338 38.817 11.2185C37.5253 12.7688 37.5791 15.2982 38.965 16.7805C39.7858 17.6644 41.064 18.0996 42.2481 17.8548C43.2976 17.6508 44.2394 16.9437 44.7507 15.9918C45.6253 14.3599 45.3696 12.1297 43.9972 10.865C43.1226 10.049 41.8444 9.72266 40.7007 10.0218Z" fill="#09051A"/>
<path d="M52.3944 8.22622C53.9418 7.2471 56.0004 6.97512 57.6688 7.81825C58.1936 8.04943 58.6242 8.4438 59.0413 8.83817C59.0547 8.471 59.0413 8.09023 59.0547 7.70946C59.9562 7.72306 60.8577 7.70946 61.7727 7.72306V19.7173C61.7592 21.5259 61.3017 23.4434 60.01 24.7624C58.5973 26.2175 56.431 26.6663 54.48 26.3671C52.3944 26.0543 50.578 24.5177 49.7707 22.573C50.578 22.1787 51.4257 21.8659 52.2599 21.4987C52.7308 22.6138 53.6861 23.5657 54.8836 23.7833C56.0811 24.0009 57.467 23.7017 58.2474 22.6954C59.0816 21.6619 59.0816 20.2476 59.0413 18.9829C58.4223 19.5949 57.7092 20.1388 56.8481 20.3428C54.9778 20.8732 52.9192 20.2204 51.4795 18.9421C50.0263 17.6638 49.1652 15.692 49.2459 13.7338C49.2863 11.5171 50.5242 9.38212 52.3944 8.22622V8.22622ZM55.1797 9.96688C54.3589 10.1029 53.5919 10.5652 53.0672 11.2044C51.8024 12.7274 51.8024 15.1616 53.0807 16.6575C53.8072 17.5414 54.9778 18.031 56.1081 17.9086C57.171 17.7998 58.1532 17.1199 58.678 16.1816C59.566 14.5905 59.418 12.4283 58.2205 11.0412C57.4805 10.1845 56.2964 9.76289 55.1797 9.96688V9.96688Z" fill="#09051A"/>
<path d="M70.1665 8.92044C71.7811 7.39737 74.2703 6.88061 76.3424 7.68294C78.3069 8.43088 79.5582 10.3211 80.1906 12.2658C77.2708 13.4897 74.3645 14.7 71.4448 15.9239C71.8484 16.699 72.4674 17.4061 73.3016 17.6917C74.4722 18.1133 75.8715 17.9637 76.8537 17.175C77.2439 16.8758 77.5534 16.4814 77.8494 16.1007C78.5894 16.6038 79.3295 17.0934 80.0695 17.5965C79.02 19.1876 77.2574 20.3027 75.3602 20.4795C73.2612 20.7379 71.0277 19.9219 69.6687 18.2629C67.4351 15.6519 67.6504 11.273 70.1665 8.92044V8.92044ZM71.6062 11.4362C71.1488 12.1026 70.9604 12.9185 70.9738 13.7208C72.9248 12.9049 74.8758 12.089 76.8268 11.2594C76.5039 10.4979 75.7235 10.0355 74.9296 9.91316C73.6514 9.68198 72.3194 10.3755 71.6062 11.4362V11.4362Z" fill="#09051A"/>
</svg>
