<svg width="102" height="26" viewBox="0 0 102 26" fill="none" xmlns="http://www.w3.org/2000/svg">
<path d="M11.2625 0.949299C9.95107 1.09784 7.98393 1.71485 6.86469 2.33186C3.85745 3.96581 1.82248 6.51384 0.804994 9.90741C0.601497 10.5701 0.364083 12.3755 0.375389 13.221C0.375389 13.9637 0.601497 15.7805 0.737162 16.2146C0.804994 16.4203 0.951964 16.9116 1.07632 17.2887C1.27982 17.9286 2.26339 19.9396 2.43297 20.0767C2.46689 20.111 2.64777 20.3395 2.81736 20.6023C3.23566 21.2307 4.33228 22.3505 5.15757 22.9904C5.79068 23.4817 7.57693 24.5215 7.80304 24.5329C7.85957 24.5329 7.87087 24.0987 7.83695 23.5274C7.75782 22.2591 7.99523 20.5337 8.50397 18.7741C8.59442 18.477 8.66225 18.0885 8.66225 17.9171C8.66225 17.7458 8.70747 17.5629 8.764 17.5058C8.82052 17.4372 8.92227 17.1059 8.9788 16.7631C9.04663 16.4203 9.15969 15.8947 9.23882 15.5976C9.35188 15.152 9.34057 14.9806 9.1823 14.5007C8.95619 13.7694 8.94488 12.5811 9.17099 12.0098C9.70235 10.6501 10.2902 10.1359 11.2851 10.1359C12.4835 10.1359 13.0601 11.05 12.8339 12.5811C12.7322 13.2781 12.4496 14.375 12.2687 14.7178C12.2235 14.8207 12.1443 15.1063 12.1104 15.3463C12.0652 15.5976 11.9747 15.9518 11.9182 16.1461C11.7599 16.5917 12.0652 17.4601 12.4722 17.7915C12.8566 18.1 13.6592 18.1914 14.3941 18.02C14.9141 17.9057 15.1289 17.7686 15.6716 17.243C16.316 16.6031 16.8021 15.8604 16.8021 15.5062C16.8021 15.4034 16.8587 15.2663 16.9265 15.1977C17.243 14.8778 17.4126 12.3869 17.1752 11.3357C16.9152 10.1816 16.1125 9.05044 15.0724 8.38773C14.0323 7.71358 11.8843 7.51934 10.5616 7.97639C9.63451 8.29632 8.80922 8.83335 8.27787 9.46179C7.80304 10.0217 7.3056 10.9358 7.3056 11.2557C7.3056 11.37 7.24907 11.5185 7.18124 11.5871C7.11341 11.6556 7.03427 12.0898 7.00036 12.5583C6.94383 13.2553 6.98905 13.5752 7.19255 14.2608C7.32821 14.7292 7.57693 15.2777 7.7239 15.4834C8.02915 15.8947 8.02915 16.0547 7.74651 17.1516C7.66737 17.4487 7.53171 17.7229 7.45257 17.7572C6.74033 18.0314 5.29324 16.3061 4.80711 14.5921C4.62622 13.9408 4.61491 11.6213 4.7958 10.9358C4.87494 10.6501 5.0106 10.2616 5.10105 10.0559C5.19149 9.8617 5.27063 9.66746 5.27063 9.62175C5.27063 9.57605 5.49674 9.18756 5.77937 8.76479C7.24907 6.52526 9.63451 5.33694 12.6531 5.33694C13.3427 5.33694 14.0549 5.38265 14.2471 5.43978C15.8073 5.9311 16.2256 6.09107 16.8361 6.45671C18.0231 7.17656 18.8823 8.1592 19.7415 9.80457C19.7981 9.90741 19.8772 10.1816 19.9111 10.4102C19.9563 10.6387 20.0355 10.8558 20.092 10.8901C20.1485 10.9243 20.1938 11.667 20.1938 12.5468C20.1938 14.1351 20.0807 14.775 19.6059 16.0775C19.0745 17.5058 17.7066 19.0826 16.463 19.6996C15.7507 20.0424 14.4167 20.4195 13.8853 20.4195C13.1731 20.4195 11.7712 19.8253 11.3869 19.3454C11.206 19.1283 11.0364 19.2083 11.0364 19.5168C11.0364 19.6311 10.9912 19.8253 10.9233 19.9396C10.8668 20.0424 10.7651 20.3623 10.7085 20.648C10.3807 22.1562 9.91715 23.3788 9.20491 24.5215C8.99011 24.8757 9.17099 25.0813 9.75887 25.1613C10.0528 25.207 10.4485 25.287 10.6294 25.3441C11.0816 25.4927 13.5349 25.4698 14.3602 25.3213C15.1063 25.1842 16.316 24.8414 16.8587 24.6129C20.2729 23.196 22.8618 20.3166 23.9811 16.6488C24.5803 14.695 24.6142 12.4212 24.0715 10.1359C23.8906 9.39323 23.8341 9.22184 23.348 8.07922C22.647 6.411 21.0643 4.45713 19.4589 3.25738C18.0796 2.22903 16.723 1.63487 14.6089 1.12069C14.021 0.983578 11.9295 0.869316 11.2625 0.949299ZM41.414 5.07414C40.9731 5.1427 40.2722 5.87397 40.0913 6.44528C39.8991 7.07372 40.0913 7.74786 40.6339 8.27347C41.8323 9.45036 43.9125 8.34202 43.6525 6.65095C43.4942 5.57689 42.5219 4.89132 41.414 5.07414ZM29.0911 5.74829C28.9894 5.86255 28.9894 19.6425 29.1024 19.8025C29.1589 19.8939 29.6451 19.9282 30.5947 19.9167L32.0079 19.9053L32.0644 17.5858C32.1097 15.7005 32.1549 15.2434 32.2905 15.1634C32.381 15.1063 33.1498 15.0492 33.9977 15.0492C35.8517 15.0492 36.6318 14.9121 37.4797 14.455C38.5877 13.8494 39.2321 12.981 39.5825 11.5985C39.7973 10.7301 39.7973 10.1017 39.5712 9.21041C39.3677 8.41058 39.2773 8.21634 38.7911 7.56504C38.192 6.75379 37.5815 6.30817 36.5866 5.95396C36.0326 5.77114 35.5691 5.73686 32.5732 5.70258C30.7078 5.67973 29.1363 5.70258 29.0911 5.74829ZM35.2978 8.5934C36.0552 8.83335 36.4283 9.17613 36.5979 9.79315C36.8127 10.6044 36.6544 11.3585 36.1796 11.8156C35.6595 12.3069 35.196 12.4212 33.6811 12.4212C32.6862 12.4212 32.381 12.3869 32.2453 12.2383C32.0984 12.1012 32.0644 11.7699 32.0644 10.4673C32.0644 8.41058 32.0531 8.42201 33.6246 8.42201C34.3029 8.42201 34.9586 8.49056 35.2978 8.5934ZM55.1275 7.91926C55.1275 8.70766 55.0709 9.45036 55.0144 9.57605C54.9353 9.72459 54.777 9.79315 54.5057 9.79315C54.3022 9.79315 54.11 9.83885 54.0874 9.90741C54.0761 9.96454 54.076 10.3645 54.11 10.7872C54.1665 11.5413 54.1778 11.5528 54.517 11.6328C54.7092 11.667 54.924 11.7356 54.9918 11.7813C55.0935 11.8384 55.1275 12.7411 55.1275 15.0263C55.1275 18.1 55.1388 18.2142 55.3875 18.6713C55.9075 19.6425 56.7215 19.9853 58.3721 19.9396L59.48 19.9053L59.514 18.797L59.5479 17.6772H59.2652C58.8356 17.6772 58.2025 17.3344 58.1347 17.0602C58.1008 16.9231 58.0669 15.7119 58.0669 14.3522C58.0669 12.4783 58.1008 11.8499 58.2138 11.7584C58.293 11.6899 58.6095 11.6213 58.9148 11.5985L59.48 11.5642V9.85028L58.8582 9.816C58.5191 9.79315 58.2025 9.71316 58.1573 9.64461C58.1121 9.56462 58.0669 8.82192 58.0669 7.98781V6.47956H55.1275V7.91926ZM97.1496 6.54812C97.1044 6.59382 97.0705 7.31367 97.0705 8.14778C97.0705 9.77029 97.0592 9.79315 96.4374 9.79315C96.1548 9.79315 96.1548 9.80457 96.1887 10.673C96.2226 11.5413 96.2339 11.5642 96.5278 11.5985C96.6861 11.6213 96.8783 11.7013 96.9348 11.7699C97.0027 11.8499 97.0705 13.2324 97.1044 14.992C97.1383 16.6831 97.1949 18.2257 97.2401 18.4085C97.3757 18.9112 98.0767 19.5511 98.7437 19.7682C99.4899 20.0196 101.389 20.0424 101.581 19.8025C101.672 19.6996 101.706 19.2883 101.683 18.6941L101.649 17.7343L101.254 17.6658C100.824 17.5972 100.338 17.3687 100.213 17.1744C100.168 17.1059 100.123 15.8604 100.123 14.4093C100.123 11.4271 100.055 11.6213 101.039 11.6213C101.683 11.6213 101.74 11.5071 101.683 10.4673L101.649 9.85028L100.914 9.79315L100.179 9.73602L100.123 8.13635L100.066 6.53669L98.642 6.50241C97.8619 6.49099 97.1949 6.51384 97.1496 6.54812ZM49.5313 9.51892C48.9773 9.66746 48.3329 10.0445 47.9033 10.4901C47.3833 11.0386 47.2476 11.0043 47.1911 10.3073L47.1571 9.85028H44.3308V19.9053L45.7553 19.9281C47.1571 19.9624 47.1911 19.951 47.2589 19.6996C47.2928 19.5625 47.3267 18.1114 47.3267 16.466C47.3267 13.2096 47.338 13.1182 48.0051 12.4783C48.299 12.1926 48.4573 12.1355 49.0904 12.1012L49.8252 12.0555L50.2661 12.524C50.7862 13.0725 50.7297 12.5469 50.7749 17.2773C50.7862 18.5342 50.7975 19.6425 50.8088 19.7568C50.8314 19.9167 51.0123 19.9396 52.2785 19.9167L53.7143 19.9053V11.8841L53.3864 11.2328C52.8212 10.1017 51.9506 9.56462 50.6166 9.49607C50.1418 9.48464 49.6556 9.48464 49.5313 9.51892ZM63.663 9.51892C62.4421 9.85028 61.8542 10.1816 61.0967 10.9358C60.0792 11.9755 59.6157 13.1867 59.6157 14.8207C59.627 17.6886 61.402 19.8139 64.0248 20.0653C66.2633 20.2824 67.993 19.6196 69.1009 18.1228C69.2592 17.9057 69.5984 17.2087 69.5984 17.083C69.5984 17.0373 68.9427 16.9916 68.1513 16.9916H66.7042L66.365 17.3458C65.9693 17.7572 65.4154 18.02 64.9066 18.02C64.3979 18.02 63.6178 17.6543 63.256 17.2659C62.9847 16.9573 62.589 16.0661 62.589 15.7576C62.589 15.6548 63.4143 15.6205 66.0711 15.6205C67.9817 15.6205 69.5984 15.5748 69.6775 15.5291C69.8471 15.4148 69.6888 13.5981 69.4401 12.9353C68.9314 11.5528 67.9704 10.3873 66.9981 9.97596C66.7155 9.8617 66.3876 9.71316 66.2746 9.65603C66.0372 9.53034 64.0248 9.42751 63.663 9.51892ZM65.8676 12.0212C66.3085 12.3298 66.6929 13.061 66.6364 13.4724C66.6024 13.7352 66.5798 13.7352 64.6692 13.7694C62.4647 13.8037 62.4534 13.7923 62.8038 12.9696C63.0526 12.3983 63.55 11.8841 64.0135 11.7356C64.5449 11.5642 65.4041 11.7013 65.8676 12.0212ZM80.395 9.51892C79.0836 9.87313 78.1679 10.4559 77.4556 11.3585C77.173 11.7242 76.9469 12.067 76.9469 12.1355C76.9469 12.1926 76.8678 12.3983 76.766 12.5926C76.6643 12.7754 76.5173 13.3467 76.4381 13.8609C76.0424 16.3061 77.1278 18.5913 79.1627 19.6196L79.9428 20.0196H81.5821C83.2779 20.0196 83.4249 19.9853 84.465 19.4254C85.2224 19.0141 86.466 17.4144 86.2738 17.0945C86.2286 17.0373 85.5842 16.9916 84.8268 16.9916H83.4362L83.1536 17.323C82.023 18.6141 79.9089 17.9514 79.4567 16.1575C79.3889 15.9176 79.3888 15.7119 79.4454 15.6662C79.5019 15.6319 81.1186 15.6091 83.0518 15.6205C85.8103 15.6205 86.5565 15.5976 86.5678 15.4834C86.6695 14.0551 85.9912 11.9413 85.1433 11.0272C84.6685 10.513 83.8432 9.94169 83.4362 9.83885C83.2553 9.79315 83.0518 9.71316 82.9727 9.65603C82.8144 9.53034 80.7455 9.42751 80.395 9.51892ZM82.1587 11.747C82.6674 11.9298 83.2553 12.5697 83.3457 13.061C83.4814 13.8037 83.4927 13.8037 81.3899 13.7694C79.5019 13.7352 79.4906 13.7352 79.4567 13.4724C79.4115 13.1524 79.8072 12.364 80.1463 12.067C80.6324 11.6556 81.4804 11.5185 82.1587 11.747ZM90.2307 9.51892C87.9131 10.0788 87.0765 10.9129 87.0652 12.6497C87.0652 14.5236 87.9923 15.312 90.7395 15.8033C92.6275 16.1347 93.1701 16.4317 93.1475 17.1516C93.1362 17.6658 92.7858 17.9971 92.0848 18.1457C91.203 18.3399 90.5134 18.1228 89.9594 17.4944L89.5185 16.9916H88.1505C87.0426 16.9916 86.7826 17.0259 86.7826 17.1516C86.7826 17.483 87.2348 18.3513 87.6079 18.7855C87.9584 19.1626 88.2297 19.3454 89.2924 19.8596C89.3941 19.9167 89.9481 20.0081 90.5021 20.0767C91.5309 20.2024 93.3171 20.0881 93.7693 19.8596C93.8711 19.8139 94.165 19.6653 94.4137 19.5511C95.0581 19.2426 95.6686 18.5456 95.8947 17.8829C96.1435 17.1287 96.0756 16.0775 95.7252 15.3463C95.3069 14.4893 94.1989 13.8723 92.5483 13.5752C90.4229 13.1981 90.389 13.1867 90.0499 12.8554C89.6429 12.4326 89.6429 12.284 90.0499 11.827C90.3777 11.4614 90.4003 11.4499 91.3047 11.4499C92.2092 11.4499 92.2318 11.4614 92.5596 11.827C92.7405 12.0327 92.8875 12.2726 92.8875 12.364C92.8875 12.5011 93.1249 12.5354 94.3007 12.5354C95.8608 12.5354 95.8156 12.5697 95.5443 11.7584C95.0468 10.3187 93.7693 9.58747 91.6439 9.50749C90.9882 9.48464 90.3551 9.48464 90.2307 9.51892ZM75.1945 9.75887C74.6971 9.93026 74.0075 10.5016 73.7927 10.9129C73.5779 11.3243 73.3857 11.1529 73.3292 10.4673L73.2726 9.85028H70.4463L70.4124 14.6493C70.4011 17.2887 70.4124 19.5625 70.4463 19.7111C70.5028 19.9624 70.5367 19.9624 71.8934 19.9396C72.6734 19.9281 73.3065 19.8596 73.3518 19.791C73.397 19.7339 73.4422 18.5227 73.4422 17.1059C73.4422 14.8664 73.4648 14.4664 73.657 13.9637C74.0527 12.9239 74.9006 12.3069 75.9633 12.3069C76.2573 12.3069 76.3816 12.2498 76.4155 12.1012C76.4947 11.7699 76.506 10.2273 76.4381 9.88455C76.3703 9.61033 76.3138 9.56462 76.0085 9.57605C75.805 9.58747 75.4433 9.66746 75.1945 9.75887ZM40.3739 9.93026C40.34 10.0102 40.3287 12.2612 40.34 14.9349L40.3739 19.791L41.7192 19.8482C42.5332 19.8824 43.1211 19.8596 43.2116 19.791C43.3359 19.6996 43.3698 18.7284 43.3698 14.8435C43.3811 12.1926 43.3472 9.96454 43.3133 9.90741C43.2003 9.73601 40.4304 9.75887 40.3739 9.93026Z" fill="#09051A"/>
</svg>
