<svg width="48" height="48" viewBox="0 0 48 48" fill="none" xmlns="http://www.w3.org/2000/svg">
<path d="M23.8691 0C25.1874 0 26.2561 1.06866 26.2561 2.38691V4.77383C26.2561 6.09208 25.1874 7.16074 23.8691 7.16074C22.5509 7.16074 21.4822 6.09208 21.4822 4.77383V2.38691C21.4822 1.06866 22.5509 0 23.8691 0Z" fill="#1C5CFF"/>
<path d="M5.47294 5.47294C6.40509 4.54079 7.9164 4.54079 8.84855 5.47294L11.2355 7.85985C12.1676 8.792 12.1676 10.3033 11.2355 11.2355C10.3033 12.1676 8.792 12.1676 7.85985 11.2355L5.47294 8.84855C4.54079 7.9164 4.54079 6.40509 5.47294 5.47294Z" fill="#1C5CFF"/>
<path d="M42.2653 8.84855L39.8784 11.2355C38.9463 12.1676 37.435 12.1676 36.5028 11.2355C35.5707 10.3033 35.5707 8.792 36.5028 7.85985L38.8897 5.47294C39.8219 4.54079 41.3332 4.54079 42.2653 5.47294C43.1975 6.40509 43.1975 7.9164 42.2653 8.84855Z" fill="#1C5CFF"/>
<path d="M39.8784 36.5028C38.9463 35.5707 37.435 35.5707 36.5028 36.5028C35.5707 37.435 35.5707 38.9463 36.5028 39.8784L38.8897 42.2653C39.8219 43.1975 41.3332 43.1975 42.2653 42.2653C43.1975 41.3332 43.1975 39.8219 42.2653 38.8897L39.8784 36.5028Z" fill="#1C5CFF"/>
<path d="M11.2355 36.5028C12.1676 37.435 12.1676 38.9463 11.2355 39.8784L8.84855 42.2653C7.9164 43.1975 6.40509 43.1975 5.47294 42.2653C4.54079 41.3332 4.54079 39.8219 5.47294 38.8897L7.85985 36.5028C8.792 35.5707 10.3033 35.5707 11.2355 36.5028Z" fill="#1C5CFF"/>
<path d="M26.2561 42.9645C26.2561 41.6462 25.1874 40.5775 23.8691 40.5775C22.5509 40.5775 21.4822 41.6462 21.4822 42.9645V45.3514C21.4822 46.6696 22.5509 47.7383 23.8691 47.7383C25.1874 47.7383 26.2561 46.6696 26.2561 45.3514V42.9645Z" fill="#1C5CFF"/>
<path d="M2.38691 21.4822C1.06866 21.4822 0 22.5509 0 23.8691C0 25.1874 1.06866 26.2561 2.38691 26.2561H4.77383C6.09208 26.2561 7.16074 25.1874 7.16074 23.8691C7.16074 22.5509 6.09208 21.4822 4.77383 21.4822H2.38691Z" fill="#1C5CFF"/>
<path d="M40.5775 23.8691C40.5775 22.5509 41.6462 21.4822 42.9645 21.4822H45.3514C46.6696 21.4822 47.7383 22.5509 47.7383 23.8691C47.7383 25.1874 46.6696 26.2561 45.3514 26.2561H42.9645C41.6462 26.2561 40.5775 25.1874 40.5775 23.8691Z" fill="#1C5CFF"/>
<path fill-rule="evenodd" clip-rule="evenodd" d="M23.8691 11.9346C17.2779 11.9346 11.9346 17.2779 11.9346 23.8691C11.9346 30.4604 17.2779 35.8037 23.8691 35.8037C30.4604 35.8037 35.8037 30.4604 35.8037 23.8691C35.8037 17.2779 30.4604 11.9346 23.8691 11.9346Z" fill="#1C5CFF"/>
</svg>
