<svg width="47" height="47" viewBox="0 0 47 47" fill="none" xmlns="http://www.w3.org/2000/svg">
<path d="M18.6416 23.302C18.6416 20.7281 20.7281 18.6416 23.302 18.6416C25.8759 18.6416 27.9624 20.7281 27.9624 23.302C27.9624 25.8759 25.8759 27.9624 23.302 27.9624C20.7281 27.9624 18.6416 25.8759 18.6416 23.302Z" fill="#1C5CFF"/>
<path fill-rule="evenodd" clip-rule="evenodd" d="M16.5044 4.9533C16.7856 2.14137 19.1517 0 21.9777 0H24.628C27.4541 0 29.8202 2.14168 30.1014 4.95348C30.1681 5.62074 30.9508 5.94444 31.4692 5.52034C33.6562 3.73092 36.8434 3.88988 38.8416 5.88804L40.7158 7.76222C42.714 9.76049 42.873 12.9478 41.0835 15.135C40.6591 15.6537 40.9831 16.4365 41.6504 16.5033C44.4624 16.7845 46.604 19.1507 46.604 21.9768V24.6271C46.604 27.453 44.4627 29.8191 41.6509 30.1003C40.9843 30.1669 40.6598 30.9493 41.0844 31.4683C42.8739 33.6554 42.7151 36.8428 40.7168 38.8412L38.8429 40.7151C36.8445 42.7134 33.6571 42.8724 31.4699 41.0828C30.9514 40.6586 30.1682 40.9823 30.1014 41.65C29.8202 44.4621 27.454 46.604 24.6276 46.604H21.9781C19.1519 46.604 16.7855 44.4625 16.5043 41.6503C16.4376 40.9833 15.6546 40.6584 15.1352 41.0835C12.9478 42.8731 9.75993 42.7144 7.76131 40.7158L5.88802 38.8425C3.88953 36.844 3.73073 33.6563 5.52033 31.4691C5.94514 30.9499 5.62055 30.167 4.95356 30.1003C2.14148 29.8191 0 27.4528 0 24.6267V21.9772C0 19.1508 2.14185 16.7844 4.95403 16.5032C5.62175 16.4364 5.94583 15.6532 5.52129 15.1343C3.73163 12.9469 3.89062 9.75931 5.88905 7.76088L7.76258 5.88735C9.76108 3.88885 12.9488 3.73024 15.1359 5.51974C15.6552 5.94457 16.4377 5.61978 16.5044 4.9533ZM23.302 13.9812C18.1543 13.9812 13.9812 18.1543 13.9812 23.302C13.9812 28.4497 18.1543 32.6228 23.302 32.6228C28.4497 32.6228 32.6228 28.4497 32.6228 23.302C32.6228 18.1543 28.4497 13.9812 23.302 13.9812Z" fill="#1C5CFF"/>
</svg>
